<svg width="431" height="293" viewBox="0 0 431 293" fill="none" xmlns="http://www.w3.org/2000/svg">
<g clip-path="url(#clip0_14_310)">
<path d="M386.326 196.029C381.911 197.4 374.234 198.315 365.373 198.909C341.281 200.531 308.419 199.832 308.419 199.832C308.419 199.832 139.025 204.996 15.3469 146.291C15.3469 146.291 -2.53373 135.678 15.2031 123.586C17.9312 121.783 20.8127 120.224 23.8142 118.928L24.0335 118.73C26.0677 117.037 28.249 115.529 30.5516 114.225C37.3222 110.329 48.643 105.884 61.9842 108.867L391.167 180.02C391.167 180.02 402.755 190.913 386.326 196.029Z" fill="#FFBA08"/>
<path d="M321.453 168.199L393.542 122.478L423.896 129.387L391.167 180.02C391.167 180.02 321.795 176.941 321.453 168.199Z" fill="#FFBA08"/>
<path d="M148.047 129.039L288.524 97.4269L310.594 103.266L246.582 128.15L225.891 149.016L148.047 129.039Z" fill="#FFBA08"/>
<path d="M365.373 198.909C341.281 200.531 308.419 199.832 308.419 199.832C308.419 199.832 139.025 204.996 15.3469 146.291C15.3469 146.291 -2.53372 135.678 15.2031 123.586L15.2482 123.828C15.2482 123.828 41.5567 143.713 171.072 165.948L365.373 198.909Z" fill="#F5F8FA"/>
<path d="M343.177 196.678L403.745 225.221L419.384 224.309L383.823 194.513C383.823 194.513 339.544 182.602 343.177 196.678Z" fill="#FFBA08"/>
<path d="M37.5495 127.707C34.5942 127.602 28.0883 122.289 24.0557 118.731C26.0898 117.038 28.2712 115.53 30.5737 114.226C33.8289 117.009 39.6421 121.542 43.007 121.553C47.8634 121.608 42.0007 127.861 37.5495 127.707Z" fill="#F5F8FA"/>
<path d="M311.385 282.702L271.537 282.701L163.762 201.428L143.755 186.338L134.038 179.006C153.776 164.018 229.736 190.096 229.736 190.096C231.147 191.421 231.508 193.518 231.322 195.805C230.968 200.086 228.692 205.013 227.821 206.784C227.611 207.218 227.484 207.447 227.484 207.447L311.385 282.702Z" fill="#FFBA08"/>
<path d="M385.13 95.5914L378.007 99.5975L382.582 92.2133C381.449 91.2068 380.013 90.6069 378.501 90.5085L378.39 90.5027C377.912 90.487 377.436 90.4263 376.968 90.3214L374.559 91.6816L375.652 89.9141C374.03 89.247 372.66 88.085 371.735 86.5935L367.424 89.0379L370.309 84.3735C368.024 81.3119 364.829 79.3419 361.206 79.1521C356.866 78.9246 352.864 81.3052 350.157 85.2044C349.354 86.3725 348.255 87.3067 346.974 87.9118C345.693 88.517 344.275 88.7716 342.863 88.6497L342.633 88.6376C337.84 88.3865 333.671 93.62 333.319 100.331C332.968 107.042 336.567 112.682 341.359 112.934C342.413 112.985 343.463 112.779 344.418 112.333C346.092 111.626 347.898 111.291 349.714 111.35C351.529 111.41 353.309 111.864 354.932 112.679C356.303 113.384 357.806 113.792 359.344 113.876C360.883 113.961 362.421 113.72 363.861 113.169C365.546 112.541 367.346 112.282 369.139 112.411C370.933 112.539 372.678 113.052 374.256 113.914C375.155 114.446 376.168 114.753 377.21 114.812C382.003 115.064 386.171 109.83 386.523 103.119C386.697 100.533 386.218 97.9439 385.13 95.5914Z" fill="#F5F8FA"/>
<path opacity="0.03" d="M371.23 112.688C368.752 112.082 366.149 112.228 363.753 113.106C362.316 113.661 360.778 113.907 359.24 113.826C357.702 113.746 356.199 113.341 354.828 112.638C353.205 111.82 351.425 111.366 349.609 111.306C347.794 111.246 345.987 111.583 344.314 112.292C343.356 112.737 342.305 112.943 341.25 112.892C336.994 112.669 333.677 108.187 333.238 102.485C334.122 101.911 334.885 101.169 335.486 100.302C338.193 96.4072 342.195 94.0266 346.535 94.2541C350.876 94.4816 354.569 97.212 356.852 101.337C357.534 102.583 358.527 103.631 359.735 104.379C360.942 105.126 362.323 105.547 363.742 105.601L363.852 105.607C367.218 105.775 370.011 108.645 371.23 112.688Z" fill="black"/>
<path d="M101.305 64.966L97.7549 66.9652L100.037 63.284C99.4733 62.7793 98.7565 62.4785 98.0015 62.4296L97.9483 62.4268C97.7092 62.4168 97.4713 62.3865 97.2373 62.3362L96.0371 63.0121L96.5802 62.1504C95.771 61.8181 95.0873 61.2387 94.6263 60.4948L92.4771 61.7173L93.9326 59.3947C93.4171 58.6496 92.742 58.0291 91.9565 57.5784C91.171 57.1276 90.295 56.8579 89.3922 56.789C87.2286 56.6756 85.2325 57.8617 83.899 59.8079C83.4977 60.3921 82.9486 60.8591 82.3078 61.161C81.6671 61.4629 80.9577 61.5889 80.2523 61.5261L80.137 61.5201C77.7473 61.3949 75.6674 64.0096 75.492 67.3562C75.3167 70.7028 77.112 73.5162 79.5018 73.6414C80.0274 73.6673 80.5515 73.5649 81.029 73.3431C81.8636 72.9892 82.7651 72.8213 83.671 72.8511C84.5768 72.8809 85.4654 73.1077 86.2749 73.5157C86.9565 73.8628 87.7033 74.0629 88.467 74.1029C89.2307 74.1429 89.9944 74.022 90.7085 73.7481C91.5492 73.4342 92.4476 73.3051 93.3425 73.3697C94.2374 73.4342 95.108 73.6909 95.8949 74.1222C96.3431 74.385 96.8469 74.538 97.3653 74.5687C99.7551 74.6939 101.835 72.0836 102.01 68.7371C102.095 67.4407 101.852 66.1439 101.305 64.966Z" fill="#F5F8FA"/>
<path opacity="0.03" d="M94.3718 73.495C93.1349 73.19 91.8349 73.2629 90.6397 73.7044C89.9251 73.9766 89.1618 74.0972 88.3982 74.0587C87.626 74.018 86.8714 73.8131 86.1846 73.4576C85.3745 73.0511 84.4858 72.8255 83.58 72.7965C82.6743 72.7675 81.773 72.9357 80.9384 73.2895C80.4626 73.5113 79.9399 73.6137 79.4157 73.588C77.292 73.4767 75.6353 71.2402 75.4152 68.3981C75.8552 68.1091 76.2366 67.7395 76.5393 67.3087C77.8861 65.3632 79.8822 64.1771 82.0325 64.2898C84.1828 64.4025 86.0358 65.7769 87.1821 67.8264C87.5231 68.4492 88.02 68.9726 88.624 69.3453C89.228 69.7179 89.9183 69.9269 90.6274 69.9519L90.685 69.9549C92.3565 70.0425 93.7617 71.4781 94.3718 73.495Z" fill="black"/>
<path d="M249.101 27.489L241.978 31.4951L246.553 24.111C245.42 23.1044 243.984 22.5045 242.472 22.4062L242.361 22.4004C241.882 22.3847 241.406 22.3239 240.939 22.219L238.529 23.5792L239.622 21.8118C238 21.1446 236.63 19.9827 235.706 18.4911L231.394 20.9355L234.28 16.2712C231.995 13.2096 228.799 11.2396 225.177 11.0498C220.837 10.8223 216.835 13.2028 214.128 17.1021C213.324 18.2701 212.226 19.2043 210.945 19.8095C209.664 20.4147 208.245 20.6693 206.834 20.5474L206.603 20.5353C201.811 20.2841 197.642 25.5176 197.29 32.2285C196.938 38.9394 200.537 44.58 205.33 44.8312C206.383 44.883 207.433 44.6768 208.389 44.2305C210.062 43.5235 211.869 43.1883 213.684 43.2481C215.499 43.3079 217.28 43.7612 218.903 44.5767C220.273 45.2814 221.777 45.6893 223.315 45.7737C224.853 45.8582 226.392 45.6174 227.831 45.0669C229.516 44.4384 231.316 44.1797 233.11 44.3082C234.903 44.4368 236.648 44.9496 238.226 45.812C239.125 46.3432 240.138 46.6511 241.18 46.71C245.973 46.9612 250.142 41.7277 250.494 35.0168C250.667 32.4302 250.189 29.8416 249.101 27.489Z" fill="#F5F8FA"/>
<path d="M76.2191 199.839L69.0959 203.845L73.6708 196.461C72.5377 195.454 71.1018 194.854 69.59 194.756L69.4791 194.75C69.0005 194.734 68.5244 194.674 68.0571 194.569L65.6473 195.929L66.7403 194.161C65.1185 193.494 63.7482 192.332 62.8241 190.841L58.5125 193.285L61.3978 188.621C59.113 185.559 55.9175 183.589 52.2952 183.399C47.9547 183.172 43.9532 185.553 41.2458 189.452C40.4424 190.62 39.3442 191.554 38.063 192.159C36.7818 192.764 35.3633 193.019 33.952 192.897L33.7214 192.885C28.9287 192.634 24.7599 197.867 24.4082 204.578C24.0565 211.289 27.6554 216.93 32.4481 217.181C33.5014 217.233 34.5515 217.027 35.5072 216.58C37.1805 215.873 38.9871 215.538 40.8023 215.598C42.6175 215.658 44.3981 216.111 46.0212 216.926C47.3915 217.631 48.8947 218.039 50.433 218.123C51.9713 218.208 53.5102 217.967 54.9494 217.417C56.6344 216.788 58.4345 216.529 60.228 216.658C62.0215 216.787 63.7664 217.299 65.3446 218.162C66.2435 218.693 67.2563 219.001 68.2985 219.06C73.0913 219.311 77.2601 214.077 77.6118 207.367C77.7856 204.78 77.3067 202.191 76.2191 199.839Z" fill="#F5F8FA"/>
<path opacity="0.03" d="M235.201 44.5853C232.722 43.9798 230.12 44.1254 227.723 45.0034C226.287 45.559 224.749 45.8046 223.211 45.724C221.673 45.6434 220.169 45.2384 218.798 44.5357C217.176 43.7181 215.395 43.2637 213.58 43.2039C211.764 43.1441 209.957 43.4804 208.284 44.1894C207.327 44.6342 206.276 44.8402 205.221 44.7899C200.965 44.5668 197.647 40.0848 197.208 34.3828C198.092 33.8083 198.856 33.0667 199.457 32.1996C202.164 28.3048 206.165 25.9243 210.506 26.1518C214.846 26.3792 218.54 29.1096 220.822 33.2348C221.505 34.4811 222.498 35.5291 223.705 36.2765C224.913 37.0238 226.293 37.4451 227.712 37.4991L227.823 37.5049C231.189 37.6724 233.981 40.5425 235.201 44.5853Z" fill="black"/>
<path opacity="0.03" d="M62.3191 216.935C59.8403 216.33 57.2377 216.475 54.8416 217.353C53.4048 217.909 51.8671 218.154 50.3291 218.074C48.791 217.993 47.2874 217.588 45.9166 216.885C44.2941 216.068 42.5134 215.613 40.6978 215.554C38.8823 215.494 37.0755 215.83 35.4026 216.539C34.4448 216.984 33.3937 217.19 32.3391 217.14C28.0828 216.917 24.7655 212.435 24.3264 206.733C25.2104 206.158 25.9742 205.416 26.5748 204.549C29.2819 200.655 33.2834 198.274 37.6239 198.501C41.9644 198.729 45.6581 201.459 47.9404 205.585C48.6227 206.831 49.6161 207.879 50.8236 208.626C52.0311 209.374 53.4115 209.795 54.8303 209.849L54.9411 209.855C58.3067 210.022 61.0994 212.892 62.3191 216.935Z" fill="black"/>
</g>
<defs>
<clipPath id="clip0_14_310">
<rect width="417.147" height="270.744" fill="white" transform="translate(14.4199) rotate(3)"/>
</clipPath>
</defs>
</svg>
